<svg xmlns="http://www.w3.org/2000/svg" viewBox="0 0 1024 1024">
  <rect width="1024" height="1024" rx="224" fill="#0a0a0a"/>
  <g transform="translate(0,1024) scale(0.1,-0.1)" fill="#f5f5f5">
    <path d="M5015 9069 c-316 -43 -563 -215 -698 -484 -41 -82 -53 -116 -86 -241
-14 -52 -14 -294 -1 -345 6 -22 15 -58 21 -81 35 -141 128 -297 247 -410 96
-91 194 -151 332 -201 65 -24 65 -24 68 -1273 1 -687 0 -1255 -3 -1262 -3 -9
-50 29 -133 106 -235 219 -296 268 -522 412 -119 76 -422 240 -445 240 -3 0
-24 8 -48 19 -97 43 -183 75 -362 136 -78 26 -208 62 -273 76 -93 19 -96 23
-103 129 -18 285 -168 539 -420 706 -53 35 -102 64 -110 64 -8 0 -19 4 -24 9
-20 17 -183 60 -273 72 -72 9 -113 9 -185 0 -143 -19 -195 -35 -332 -102 -264
-130 -435 -367 -490 -679 -19 -108 -19 -175 0 -275 44 -231 142 -405 308 -547
242 -206 596 -274 904 -172 70 23 194 89 258 137 61 46 130 115 195 196 36 44
36 44 135 21 55 -12 111 -26 125 -30 14 -4 66 -20 115 -35 244 -75 461 -167
669 -284 387 -218 734 -564 883 -881 69 -147 103 -239 123 -338 11 -54 11 -65
-1 -77 -8 -7 -59 -52 -114 -100 -55 -48 -187 -165 -294 -259 -107 -94 -251
-220 -320 -280 -69 -59 -140 -120 -156 -135 -17 -14 -63 -55 -103 -91 -123
-108 -112 -22 -112 -895 0 -755 0 -755 228 -753 227 3 227 3 232 678 5 674 5
674 160 808 85 74 197 170 249 215 52 45 160 138 240 205 80 68 163 140 184
159 38 36 38 36 76 7 45 -34 200 -166 281 -239 30 -28 147 -129 260 -226 113
-97 225 -194 250 -216 45 -41 45 -41 50 -714 5 -674 5 -674 233 -677 227 -2
227 -2 227 745 0 486 -4 761 -10 785 -11 38 -43 68 -354 336 -49 42 -174 151
-276 242 -103 91 -248 218 -323 284 -134 115 -137 119 -137 159 0 96 85 323
181 482 208 349 533 634 969 851 124 62 240 114 254 114 7 0 16 3 20 7 7 7 55
26 131 50 28 8 77 25 110 36 33 11 75 24 93 29 17 4 49 12 70 18 20 5 71 17
112 26 75 16 75 16 105 -22 201 -257 451 -384 755 -384 305 0 596 148 757 386
110 162 153 291 160 487 10 248 -61 451 -224 640 -72 83 -266 227 -306 227 -7
0 -17 4 -22 9 -17 16 -177 59 -268 72 -70 10 -107 10 -190 0 -99 -13 -252 -53
-271 -72 -6 -5 -16 -9 -23 -9 -19 0 -168 -94 -225 -142 -172 -144 -308 -430
-308 -649 0 -85 7 -80 -150 -120 -68 -17 -216 -61 -305 -91 -82 -27 -335 -128
-374 -148 -9 -5 -70 -35 -137 -68 -295 -146 -544 -323 -778 -554 -66 -65 -123
-118 -128 -118 -4 0 -8 564 -8 1254 0 994 3 1256 13 1264 6 6 26 14 42 17 64
15 214 97 290 158 233 187 361 500 326 794 -7 54 -16 109 -20 123 -5 14 -14
43 -21 65 -78 251 -292 479 -534 570 -141 53 -303 73 -441 54z m237 -459 c154
-47 266 -165 318 -334 18 -55 15 -172 -4 -238 -18 -60 -75 -157 -119 -201
-104 -103 -252 -152 -389 -128 -40 8 -98 25 -128 39 -74 35 -187 149 -225 227
-28 57 -30 66 -29 185 1 129 6 149 53 239 48 92 184 196 287 220 68 16 168 12
236 -9z m-3027 -2338 c96 -35 130 -56 191 -117 107 -106 159 -261 133 -396
-38 -203 -190 -354 -390 -388 -143 -25 -296 26 -404 134 -100 100 -139 200
-133 344 3 86 7 104 40 174 57 119 152 202 288 253 55 20 216 18 275 -4z
m6090 -7 c125 -47 211 -126 270 -250 94 -195 27 -437 -154 -563 -67 -46 -113
-65 -203 -82 -57 -12 -78 -11 -145 2 -107 21 -165 51 -245 126 -81 77 -123
154 -139 260 -33 218 95 431 308 512 76 29 225 27 308 -5z M10220 5120 c0
-1647 3 -2480 10 -2480 7 0 10 833 10 2480 0 1647 -3 2480 -10 2480 -7 0 -10
-833 -10 -2480z M0 5095 c0 -1361 3 -2475 8 -2475 4 0 7 1114 7 2475 1 1361
-3 2475 -7 2475 -4 0 -8 -1114 -8 -2475z M2430 10 c0 -6 30 -9 73 -9 68 1 70
2 27 10 -64 11 -100 11 -100 -1z M7700 10 c-28 -6 -21 -8 38 -9 42 0 72 3 72
9 0 11 -57 11 -110 0z"/>
  </g>
</svg>
